<?xml version="1.0" encoding="utf-8"?>
<!-- Generator: Adobe Illustrator 17.0.0, SVG Export Plug-In . SVG Version: 6.00 Build 0)  -->
<!DOCTYPE svg PUBLIC "-//W3C//DTD SVG 1.1//EN" "http://www.w3.org/Graphics/SVG/1.1/DTD/svg11.dtd">
<svg version="1.1" id="Layer_1" xmlns="http://www.w3.org/2000/svg" xmlns:xlink="http://www.w3.org/1999/xlink" x="0px" y="0px"
	 width="360.833px" height="77.225px" viewBox="0 0.475 360.833 77.225" style="enable-background:new 0 0.475 360.833 77.225;"
	 xml:space="preserve">
<g>
	<path style="fill:#FFFFFF;" d="M42.979,60.701H32.273v-6.398c-1.778,2.488-3.876,4.341-6.296,5.558s-4.86,1.825-7.321,1.825
		c-5.004,0-9.29-2.017-12.858-6.05s-5.353-9.659-5.353-16.878c0-7.383,1.736-12.995,5.209-16.837
		c3.472-3.841,7.861-5.763,13.166-5.763c4.867,0,9.078,2.024,12.633,6.07V0.572h11.525V60.701z M12.217,37.978
		c0,4.648,0.642,8.012,1.928,10.09c1.859,3.008,4.457,4.512,7.793,4.512c2.652,0,4.908-1.128,6.768-3.384
		c1.859-2.256,2.789-5.626,2.789-10.11c0-5.004-0.902-8.606-2.707-10.808s-4.116-3.302-6.932-3.302c-2.734,0-5.024,1.087-6.87,3.261
		S12.217,33.658,12.217,37.978z"/>
	<path style="fill:#FFFFFF;" d="M74.44,46.837l11.484,1.928c-1.477,4.211-3.808,7.417-6.993,9.618
		c-3.186,2.201-7.171,3.302-11.956,3.302c-7.574,0-13.18-2.475-16.816-7.424c-2.871-3.965-4.307-8.969-4.307-15.012
		c0-7.219,1.887-12.872,5.66-16.96c3.773-4.087,8.545-6.132,14.314-6.132c6.48,0,11.593,2.14,15.34,6.419
		c3.746,4.279,5.537,10.835,5.373,19.667H57.665c0.082,3.418,1.011,6.077,2.789,7.978c1.777,1.9,3.992,2.851,6.645,2.851
		c1.805,0,3.322-0.492,4.553-1.477S73.811,49.025,74.44,46.837z M75.097,35.189c-0.082-3.336-0.943-5.872-2.584-7.608
		s-3.637-2.604-5.988-2.604c-2.516,0-4.594,0.916-6.234,2.748s-2.447,4.32-2.42,7.465H75.097z"/>
	<path style="fill:#FFFFFF;" d="M102.785,60.701L85.23,17.142h12.1l8.203,22.23l2.379,7.424c0.629-1.887,1.025-3.131,1.189-3.732
		c0.383-1.23,0.793-2.461,1.23-3.691l8.285-22.23h11.854l-17.309,43.559H102.785z"/>
	<path style="fill:#FFFFFF;" d="M157.626,46.837l11.484,1.928c-1.477,4.211-3.808,7.417-6.993,9.618s-7.171,3.302-11.956,3.302
		c-7.574,0-13.18-2.475-16.816-7.424c-2.871-3.965-4.307-8.969-4.307-15.012c0-7.219,1.887-12.872,5.66-16.96
		c3.773-4.087,8.545-6.132,14.314-6.132c6.48,0,11.594,2.14,15.34,6.419s5.537,10.835,5.373,19.667h-28.875
		c0.082,3.418,1.012,6.077,2.789,7.978s3.992,2.851,6.645,2.851c1.805,0,3.322-0.492,4.553-1.477S156.997,49.025,157.626,46.837z
		 M158.282,35.189c-0.082-3.336-0.943-5.872-2.584-7.608s-3.637-2.604-5.988-2.604c-2.516,0-4.594,0.916-6.234,2.748
		s-2.447,4.32-2.42,7.465H158.282z"/>
	<path style="fill:#FFFFFF;" d="M173.994,60.701V0.572h11.525v60.129H173.994z"/>
	<path style="fill:#FFFFFF;" d="M189.542,38.306c0-3.828,0.943-7.533,2.83-11.115s4.56-6.316,8.019-8.203s7.321-2.83,11.587-2.83
		c6.59,0,11.99,2.14,16.201,6.419s6.316,9.687,6.316,16.222c0,6.59-2.126,12.052-6.378,16.386s-9.604,6.501-16.058,6.501
		c-3.992,0-7.8-0.902-11.423-2.707s-6.378-4.45-8.265-7.937S189.542,43.31,189.542,38.306z M201.354,38.921
		c0,4.32,1.025,7.629,3.076,9.926s4.58,3.445,7.588,3.445s5.53-1.148,7.567-3.445s3.056-5.633,3.056-10.008
		c0-4.266-1.019-7.547-3.056-9.844s-4.56-3.445-7.567-3.445s-5.537,1.148-7.588,3.445S201.354,34.601,201.354,38.921z"/>
	<path style="fill:#FFFFFF;" d="M238.066,17.142h10.746v6.398c1.395-2.188,3.281-3.964,5.66-5.332
		c2.379-1.367,5.018-2.051,7.916-2.051c5.059,0,9.352,1.983,12.879,5.947c3.527,3.965,5.291,9.488,5.291,16.57
		c0,7.273-1.777,12.927-5.332,16.96s-7.861,6.05-12.92,6.05c-2.406,0-4.587-0.479-6.542-1.436s-4.013-2.598-6.173-4.922v21.943
		h-11.525V17.142z M249.469,38.183c0,4.895,0.971,8.511,2.912,10.849s4.307,3.507,7.096,3.507c2.68,0,4.908-1.073,6.686-3.22
		s2.666-5.667,2.666-10.562c0-4.566-0.916-7.957-2.748-10.172s-4.102-3.322-6.809-3.322c-2.816,0-5.154,1.087-7.014,3.261
		S249.469,33.917,249.469,38.183z"/>
	<path style="fill:#FFFFFF;" d="M309.806,46.837l11.484,1.928c-1.477,4.211-3.808,7.417-6.993,9.618s-7.171,3.302-11.956,3.302
		c-7.574,0-13.18-2.475-16.816-7.424c-2.871-3.965-4.307-8.969-4.307-15.012c0-7.219,1.887-12.872,5.66-16.96
		c3.773-4.087,8.545-6.132,14.314-6.132c6.48,0,11.594,2.14,15.34,6.419s5.537,10.835,5.373,19.667H293.03
		c0.082,3.418,1.012,6.077,2.789,7.978s3.992,2.851,6.645,2.851c1.805,0,3.322-0.492,4.553-1.477S309.177,49.025,309.806,46.837z
		 M310.462,35.189c-0.082-3.336-0.943-5.872-2.584-7.608s-3.637-2.604-5.988-2.604c-2.516,0-4.594,0.916-6.234,2.748
		s-2.447,4.32-2.42,7.465H310.462z"/>
	<path style="fill:#FFFFFF;" d="M337.207,60.701h-11.525V17.142h10.705v6.193c1.832-2.926,3.479-4.854,4.942-5.783
		c1.463-0.929,3.124-1.395,4.983-1.395c2.625,0,5.154,0.725,7.588,2.174l-3.568,10.049c-1.941-1.258-3.746-1.887-5.414-1.887
		c-1.613,0-2.98,0.444-4.102,1.333s-2.003,2.495-2.646,4.819s-0.964,7.191-0.964,14.602V60.701z"/>
	<path style="fill:#FFFFFF;" d="M349.104,60.701V49.175h11.525v11.525H349.104z"/>
</g>
</svg>
